# xmcd
#
# Track frame offsets:
#	150
#	13295
#	27196
#	44222
#	53420
#	64713
#	76346
#	93420
#	106535
#	119060
#	130995
#	140515
#	151527
#	163036
#	175146
#	190799
#	202130
#	214558
#	226762
#	240952
#	250295
#	262960
#	278630
#
# Disc length: 3903 seconds
#
# Revision: 0
# Processed by: cddbd v1.5.2PL0 Copyright (c) Steve Scherf et al.
# Submitted via: EasyCDDAExtractor 12.0.0.1
#
DISCID=330f3d17
DTITLE=Mike Shannon - Home
DYEAR=2009
DGENRE=Rock and Roll
TTITLE0=Chain-Gang
TTITLE1=Donne-moi ma chance
TTITLE2=How can i be sure
TTITLE3=I beleive
TTITLE4=Le roi du mambo
TTITLE5=Les nuits loin de toi
TTITLE6=L'homme et l'enfant (avec Julie Fuentes)
TTITLE7=Love hurts
TTITLE8=My babe
TTITLE9=My love for you
TTITLE10=Gunfight at Ok Corral
TTITLE11=One night
TTITLE12=Only the lonely
TTITLE13=Rainning in my heart
TTITLE14=Runaway
TTITLE15=Sealed with a kiss
TTITLE16=Seize ans
TTITLE17=Si toi aussi tu m'abandonnes
TTITLE18=The Tennesses waltz
TTITLE19=Too much
TTITLE20=Town without pity
TTITLE21=Unchained melody
TTITLE22=You'll never walk alone
EXTD=
EXTT0=
EXTT1=
EXTT2=
EXTT3=
EXTT4=
EXTT5=
EXTT6=
EXTT7=
EXTT8=
EXTT9=
EXTT10=
EXTT11=
EXTT12=
EXTT13=
EXTT14=
EXTT15=
EXTT16=
EXTT17=
EXTT18=
EXTT19=
EXTT20=
EXTT21=
EXTT22=
PLAYORDER=
